<svg width="29" height="24" viewBox="0 0 29 24" fill="none" xmlns="http://www.w3.org/2000/svg">
<path d="M21.75 1.71429C21.75 0.767545 21.1008 0 20.3 0H1.45C0.649216 0 0 0.767545 0 1.71429C0 2.66103 0.649216 3.42857 1.45 3.42857H20.3C21.1008 3.42857 21.75 2.66096 21.75 1.71429ZM1.45 10.2857H27.55C28.3508 10.2857 29 11.0533 29 12C29 12.9467 28.3508 13.7143 27.55 13.7143H1.45C0.649216 13.7143 0 12.9467 0 12C0 11.0533 0.649216 10.2857 1.45 10.2857ZM1.45 20.5714H14.5C15.3007 20.5714 15.95 21.339 15.95 22.2857C15.95 23.2324 15.3007 24 14.5 24H1.45C0.649216 24 0 23.2324 0 22.2857C0 21.339 0.649216 20.5714 1.45 20.5714Z" fill="#4C4C68"/>
</svg>
